inDegrees=no
num_controls=7
num_derivatives=13
num_iterations=77
num_multipliers=7
num_parameters=0
num_slacks=7
num_states=26
objective=0.453076
objective_accelerations=0.048185
objective_balance=0.001027
objective_effort=0.037522
objective_height=0.360723
objective_ligament=0.005619
solver_duration=845.489607
status=Solve_Succeeded
success=true
DataType=double
version=3
OpenSimVersion=4.5
endheader
time	/jointset/ground_pelvis/pelvis_tilt/value	/jointset/ground_pelvis/pelvis_tx/value	/jointset/ground_pelvis/pelvis_ty/value	/jointset/hip_r/hip_flexion_r/value	/jointset/hip_r/hip_adduction_r/value	/jointset/hip_r/hip_rotation_r/value	/jointset/back/lumbar_extension/value	/jointset/patellofemoral_r/patellar_flexion_r/value	/jointset/knee_r/knee_flexion_r/value	/jointset/knee_r/knee_adduction_r/value	/jointset/knee_r/knee_rotation_r/value	/jointset/ankle_r/ankle_angle_r/value	/jointset/subtalar_r/subtalar_angle_r/value	/jointset/ground_pelvis/pelvis_tilt/speed	/jointset/ground_pelvis/pelvis_tx/speed	/jointset/ground_pelvis/pelvis_ty/speed	/jointset/hip_r/hip_flexion_r/speed	/jointset/hip_r/hip_adduction_r/speed	/jointset/hip_r/hip_rotation_r/speed	/jointset/back/lumbar_extension/speed	/jointset/patellofemoral_r/patellar_flexion_r/speed	/jointset/knee_r/knee_flexion_r/speed	/jointset/knee_r/knee_adduction_r/speed	/jointset/knee_r/knee_rotation_r/speed	/jointset/ankle_r/ankle_angle_r/speed	/jointset/subtalar_r/subtalar_angle_r/speed	/forceset/tau_hip_flexion_r	/forceset/tau_hip_adduction_r	/forceset/tau_hip_rotation_r	/forceset/tau_knee_flexion_r	/forceset/tau_ankle_angle_r	/forceset/tau_subtalar_angle_r	/forceset/tau_lumbar_extension	lambda_cid13_p0	lambda_cid14_p0	lambda_cid14_p1	lambda_cid14_p2	lambda_cid14_p3	lambda_cid14_p4	lambda_cid14_p5	/jointset/ground_pelvis/pelvis_tilt/accel	/jointset/ground_pelvis/pelvis_tx/accel	/jointset/ground_pelvis/pelvis_ty/accel	/jointset/hip_r/hip_flexion_r/accel	/jointset/hip_r/hip_adduction_r/accel	/jointset/hip_r/hip_rotation_r/accel	/jointset/back/lumbar_extension/accel	/jointset/patellofemoral_r/patellar_flexion_r/accel	/jointset/knee_r/knee_flexion_r/accel	/jointset/knee_r/knee_adduction_r/accel	/jointset/knee_r/knee_rotation_r/accel	/jointset/ankle_r/ankle_angle_r/accel	/jointset/subtalar_r/subtalar_angle_r/accel	gamma_cid13_p0	gamma_cid14_p0	gamma_cid14_p1	gamma_cid14_p2	gamma_cid14_p3	gamma_cid14_p4	gamma_cid14_p5
1	-0.2237183469740085	-0.01335410725882814	0.6341810847834727	1.422729666557158	-0.2385830260116916	-0.08624983424948195	-0.7853947284175974	1.515706709839786	1.515706709839781	-0.1745299456282483	0.174275933079095	0.4362438188271121	0.1752350525484148	0.06882622305069326	0.005555913696021867	0.01576149266399016	-0.1013274268829662	-0.0009103075523417023	-0.003387240564713218	0.0004793860771890163	-0.01874111337810449	-0.01874111337810446	0.002844768052234755	-0.0004496992562033002	0.0138263965713667	0.005472657750695792	-0.3294983119073263	0.04043020578354355	0.01018612564133065	-0.4681132090329604	-0.01244964242967123	-0.0002439004080944381	0.3564180868065355	-0.04100529360005904	-56.46935405970127	-14.99694968236908	8.528228048763147	8.327179243918797	-771.0372047928207	60.59523539648454	1.215943757655196	0.13624120200923	1.846255166942537	-5.447196935190928	0.2921320055427858	-0.7452178480196769	0.04652244197318893	-5.138598423889601	-5.138598423889838	0.5129129256290668	-0.06383136747344029	-1.043409707517343	0.03343923195742485	2.350689060912175e-09	2.609572172974816e-09	1.849045390212011e-08	1.655683372389868e-08	-1.589176638043972e-10	-7.27817363917493e-09	3.33330532574382e-08
1.01	-0.2229687561018104	-0.01329153487705154	0.634431005812929	1.42144338502442	-0.2385778029083766	-0.08631821800715669	-0.7853870355613825	1.515262982527077	1.515262982527075	-0.1744728300109389	0.174268315153744	0.4363303489715742	0.1752910763514323	0.08121080601678658	0.006981789627405852	0.03423480662940647	-0.156083322241543	0.001928383272372149	-0.01025194842394011	0.001041252302399076	-0.06998603103116681	-0.06998603103116741	0.008647472593826155	-0.001031849455412998	0.003526538205653428	0.005704765120925113	-0.3300718666417926	0.04043442291653217	0.01022816553952014	-0.4678788942331774	-0.01277364167785155	-0.0002063369795499721	0.3571512859426689	-0.04099034590381383	-56.58458588112199	-14.99277376650918	8.518380715454677	8.158353284541626	-771.3957027950709	60.59496895230573	1.26754569449272	0.1492450369040346	1.849680377140046	-5.512950597230907	0.2757606739691952	-0.6514626673972661	0.05832878329447584	-5.114691636224493	-5.114691636224439	0.6243187021164266	-0.04909131636753902	-1.016238852377557	0.01400701431236534	4.57797207180358e-09	5.084649495698824e-09	4.559406525471947e-08	3.361774443505893e-08	1.003190013384313e-09	-1.563815069511224e-08	7.417114562603355e-08
1.02	-0.2220917533742701	-0.01321400688632089	0.6348660221551994	1.419604911585888	-0.2385449882862078	-0.08645412192592844	-0.7853742620288156	1.514307355397795	1.514307355397796	-0.1743556134514752	0.1742561388323563	0.4363152875421223	0.1753486033331035	0.09430859411913287	0.008547035486831828	0.05278055522677888	-0.2117658080417139	0.004607996218426436	-0.01689127278410951	0.001495521347591667	-0.1211210766926272	-0.1211210766926273	0.01486495648310097	-0.00136137846353408	-0.006491918211253432	0.005773293481421612	-0.3306454213762595	0.04043864004952073	0.01027020543770975	-0.4676445794333943	-0.0130976409260318	-0.0001687735510055738	0.3578844850788018	-0.04098291273945009	-56.70773297069822	-14.98593583169139	8.503484922266225	7.992775027846529	-771.8802998133198	60.62755893172353	1.358584784905795	0.1641151876176282	1.860742093333758	-5.632515023509741	0.2603164298108731	-0.7001411482081767	0.02500300596969854	-5.11662402556922	-5.116624025569219	0.5958687951650875	-0.01330712925563688	-0.9871293177584668	0.0007234300108600374	1.017009510016568e-08	1.606640944683618e-08	6.990872074655555e-08	7.409869871884359e-08	-9.076636226801643e-09	-1.787664707516501e-08	1.419805325614998e-07
1.03	-0.2210834881689654	-0.01312029037620026	0.6354863822436811	1.417209058090317	-0.2384859640619564	-0.0866549333749007	-0.78535382309691	1.512840950310988	1.512840950310991	-0.1741740421284651	0.1742415981681018	0.436200647316871	0.1754059678512772	0.1071324091863175	0.01020358680693248	0.07125557033943926	-0.267148391765217	0.007193018583558952	-0.02320138465598084	0.002943815479085284	-0.1721388773355874	-0.1721388773355863	0.02152221029840916	-0.001542472491256675	-0.01646853523920451	0.005673324037785995	-0.330841473974434	0.04046303334818475	0.01038418537932975	-0.4673186767955638	-0.01333479428103682	-0.0001585400443234237	0.3585197863993044	-0.04101154164104043	-56.79172073424095	-14.98519024392411	8.490793812570468	7.91560699932062	-772.0884778082867	60.63953773009299	1.212478894433293	0.1675192286312195	1.835493376987607	-5.45265059450985	0.2570351057873354	-0.5859924327969734	0.2574751835754518	-5.091201777093816	-5.091201777093879	0.7115866227785035	-0.01983690143036727	-1.007788167968897	-0.0192717313542872	1.579655323074689e-08	2.713497228193699e-08	9.419491750511855e-08	1.148186330390837e-07	-1.927117607838945e-08	-2.005267936668831e-08	2.100651367884649e-07
1.04	-0.2199533450076273	-0.01300978952799364	0.6362904149146406	1.414267074647963	-0.2384012016208691	-0.08691675518781578	-0.7853083547103222	1.510864998479065	1.51086499847907	-0.173923711677689	0.1742253812911902	0.4359852688668092	0.175461549755054	0.1186841853258412	0.0119039031040304	0.08951507172231721	-0.3209917973982909	0.009755639585608664	-0.02909334557267945	0.006501412284029326	-0.2230304257159235	-0.2230304257159236	0.02861678203631014	-0.001696620994971129	-0.02663956317336722	0.005416770602009801	-0.3310375265726092	0.04048742664684878	0.01049816532094974	-0.4669927741577418	-0.01357194763604174	-0.0001483065376412437	0.3591550877197981	-0.04104741360367902	-56.88346095611434	-14.98137515835852	8.472556375832385	7.839863028670389	-772.4229919507106	60.68586284405824	1.104176999373606	0.1728681830170793	1.817639347377273	-5.324679405423907	0.2558361571943126	-0.6165109571736279	0.4468635406597836	-5.091373573044375	-5.091373573044134	0.6833323796836476	-0.007918024454008698	-1.02601149900008	-0.03059336841725536	2.128849761449209e-08	3.411213175442402e-08	1.264139826654153e-07	1.550542416432855e-07	-2.072281294755802e-08	-2.904498686444274e-08	2.800068983559752e-07
1.05	-0.2187119766687584	-0.0128819574967557	0.6372761772336224	1.410791984925182	-0.2382911266860684	-0.08723535454142067	-0.7852190892384181	1.508380803227107	1.508380803227106	-0.1735999351054228	0.1742081054309439	0.4356675092709168	0.1755135543490523	0.1295781897336746	0.01368046915673204	0.1076220491739897	-0.3739999589709359	0.01223817294279373	-0.03455353711074389	0.01147778888584074	-0.2737841162046301	-0.2737841162046301	0.03623721257859027	-0.001726025762760355	-0.03691500902341098	0.004940313433127229	-0.3310553634841272	0.04048741347673443	0.01066084358005267	-0.4663149884401492	-0.01380047812556049	-0.000141011334641468	0.35953925963188	-0.04107654504351382	-56.94777799546662	-14.96965239112874	8.448053091921313	7.722702999874629	-772.4134604874724	60.68810432915834	1.080326559887132	0.1827413262222463	1.804917766011088	-5.284948451503632	0.241310953535307	-0.4998103016363605	0.5419407382982072	-5.063695926826645	-5.063695926826782	0.8161969880349991	0.004480169037376983	-1.028708290560082	-0.06269896922142199	2.677623844364866e-08	4.09614348718294e-08	1.588809499632661e-07	1.952747150688611e-07	-2.190123409852605e-08	-3.825030296239185e-08	3.500066960903775e-07
1.06	-0.2173620054061315	-0.01273582170302564	0.6384425474915107	1.406787600803011	-0.2381568566119849	-0.08760636322030896	-0.7850762767968245	1.505389805242255	1.505389805242246	-0.173196994508427	0.1741915218974155	0.4352469157840133	0.1755594889557423	0.1404047700774651	0.01556465560245529	0.1256366595036167	-0.4268506772763346	0.014594667442167	-0.03957521062934882	0.01721080622192612	-0.3243909722950508	-0.3243909722950518	0.04444958698226259	-0.001558155651399396	-0.04720634137559706	0.004202773140338102	-0.3310732003956453	0.04048740030661995	0.01082352183915556	-0.4656372027225568	-0.01402900861507928	-0.0001337161316419499	0.359923431543962	-0.04111319723668686	-57.01979148288203	-14.95437759151459	8.417386625312812	7.606638315709202	-772.5316333945323	60.72675786979609	1.090692186565026	0.1943922616213989	1.799165922968166	-5.293190751974664	0.2306283856319553	-0.528807353281729	0.5981916875145776	-5.062006693387193	-5.062006693387193	0.8017211519620856	0.03153695137602052	-1.029188799428538	-0.08280999319856598	3.342507281653368e-08	5.000489109862424e-08	1.844601507063155e-07	2.431939039678787e-07	-2.581870891434711e-08	-4.45753589747981e-08	4.218628763681639e-07
